<mxfile host="app.diagrams.net" modified="2023-02-27T11:22:25.064Z" agent="5.0 (Windows NT 10.0; Win64; x64) AppleWebKit/537.36 (KHTML, like Gecko) Chrome/110.0.0.0 Safari/537.36" etag="KzoPgogUq7UFfBiiMlO1" version="20.8.23" type="github">
  <diagram id="C5RBs43oDa-KdzZeNtuy" name="Page-1">
    <mxGraphModel dx="840" dy="539" grid="1" gridSize="10" guides="1" tooltips="1" connect="1" arrows="1" fold="1" page="1" pageScale="1" pageWidth="827" pageHeight="1169" math="0" shadow="0">
      <root>
        <mxCell id="WIyWlLk6GJQsqaUBKTNV-0" />
        <mxCell id="WIyWlLk6GJQsqaUBKTNV-1" parent="WIyWlLk6GJQsqaUBKTNV-0" />
        <mxCell id="WIyWlLk6GJQsqaUBKTNV-2" value="" style="rounded=0;html=1;jettySize=auto;orthogonalLoop=1;fontSize=11;endArrow=block;endFill=0;endSize=8;strokeWidth=1;shadow=0;labelBackgroundColor=none;edgeStyle=orthogonalEdgeStyle;" parent="WIyWlLk6GJQsqaUBKTNV-1" source="WIyWlLk6GJQsqaUBKTNV-3" target="WIyWlLk6GJQsqaUBKTNV-6" edge="1">
          <mxGeometry relative="1" as="geometry" />
        </mxCell>
        <mxCell id="WIyWlLk6GJQsqaUBKTNV-3" value="&lt;font style=&quot;font-size: 12px;&quot;&gt;Load/Store 指令需要读储存器&lt;/font&gt;" style="rounded=1;whiteSpace=wrap;html=1;fontSize=12;glass=0;strokeWidth=1;shadow=0;" parent="WIyWlLk6GJQsqaUBKTNV-1" vertex="1">
          <mxGeometry x="349" y="60" width="120" height="40" as="geometry" />
        </mxCell>
        <mxCell id="w8BWxTrsSD4lyKPSOWY--7" style="edgeStyle=orthogonalEdgeStyle;rounded=0;orthogonalLoop=1;jettySize=auto;html=1;exitX=1;exitY=0.5;exitDx=0;exitDy=0;entryX=0.5;entryY=0;entryDx=0;entryDy=0;" edge="1" parent="WIyWlLk6GJQsqaUBKTNV-1" source="WIyWlLk6GJQsqaUBKTNV-6" target="w8BWxTrsSD4lyKPSOWY--4">
          <mxGeometry relative="1" as="geometry" />
        </mxCell>
        <mxCell id="w8BWxTrsSD4lyKPSOWY--12" value="Store" style="edgeLabel;html=1;align=center;verticalAlign=middle;resizable=0;points=[];fontSize=18;" vertex="1" connectable="0" parent="w8BWxTrsSD4lyKPSOWY--7">
          <mxGeometry x="-0.5112" y="6" relative="1" as="geometry">
            <mxPoint x="2" y="-9" as="offset" />
          </mxGeometry>
        </mxCell>
        <mxCell id="w8BWxTrsSD4lyKPSOWY--8" style="edgeStyle=orthogonalEdgeStyle;rounded=0;orthogonalLoop=1;jettySize=auto;html=1;entryX=0.5;entryY=0;entryDx=0;entryDy=0;" edge="1" parent="WIyWlLk6GJQsqaUBKTNV-1" target="w8BWxTrsSD4lyKPSOWY--5">
          <mxGeometry relative="1" as="geometry">
            <mxPoint x="363.25" y="165" as="sourcePoint" />
          </mxGeometry>
        </mxCell>
        <mxCell id="w8BWxTrsSD4lyKPSOWY--11" value="&lt;font style=&quot;font-size: 17px;&quot;&gt;load&lt;/font&gt;" style="edgeLabel;html=1;align=center;verticalAlign=middle;resizable=0;points=[];" vertex="1" connectable="0" parent="w8BWxTrsSD4lyKPSOWY--8">
          <mxGeometry x="0.0986" y="-9" relative="1" as="geometry">
            <mxPoint x="5" y="-6" as="offset" />
          </mxGeometry>
        </mxCell>
        <mxCell id="WIyWlLk6GJQsqaUBKTNV-6" value="Load？&lt;br&gt;store？" style="rhombus;whiteSpace=wrap;html=1;shadow=0;fontFamily=Helvetica;fontSize=12;align=center;strokeWidth=1;spacing=6;spacingTop=-4;" parent="WIyWlLk6GJQsqaUBKTNV-1" vertex="1">
          <mxGeometry x="323.25" y="130" width="171.5" height="70" as="geometry" />
        </mxCell>
        <mxCell id="w8BWxTrsSD4lyKPSOWY--4" value="Load？&lt;br&gt;store？" style="rhombus;whiteSpace=wrap;html=1;shadow=0;fontFamily=Helvetica;fontSize=12;align=center;strokeWidth=1;spacing=6;spacingTop=-4;" vertex="1" parent="WIyWlLk6GJQsqaUBKTNV-1">
          <mxGeometry x="520" y="190" width="171.5" height="70" as="geometry" />
        </mxCell>
        <mxCell id="w8BWxTrsSD4lyKPSOWY--14" value="" style="edgeStyle=orthogonalEdgeStyle;rounded=0;orthogonalLoop=1;jettySize=auto;html=1;fontSize=12;" edge="1" parent="WIyWlLk6GJQsqaUBKTNV-1" source="w8BWxTrsSD4lyKPSOWY--5" target="w8BWxTrsSD4lyKPSOWY--13">
          <mxGeometry relative="1" as="geometry" />
        </mxCell>
        <mxCell id="w8BWxTrsSD4lyKPSOWY--19" style="edgeStyle=orthogonalEdgeStyle;rounded=0;orthogonalLoop=1;jettySize=auto;html=1;entryX=1;entryY=0.5;entryDx=0;entryDy=0;fontSize=12;exitX=1;exitY=0.5;exitDx=0;exitDy=0;" edge="1" parent="WIyWlLk6GJQsqaUBKTNV-1" source="w8BWxTrsSD4lyKPSOWY--5" target="w8BWxTrsSD4lyKPSOWY--18">
          <mxGeometry relative="1" as="geometry">
            <Array as="points">
              <mxPoint x="380" y="225" />
              <mxPoint x="380" y="450" />
            </Array>
          </mxGeometry>
        </mxCell>
        <mxCell id="w8BWxTrsSD4lyKPSOWY--5" value="Cache hit？" style="rhombus;whiteSpace=wrap;html=1;shadow=0;fontFamily=Helvetica;fontSize=12;align=center;strokeWidth=1;spacing=6;spacingTop=-4;" vertex="1" parent="WIyWlLk6GJQsqaUBKTNV-1">
          <mxGeometry x="160" y="190" width="171.5" height="70" as="geometry" />
        </mxCell>
        <mxCell id="w8BWxTrsSD4lyKPSOWY--16" value="" style="edgeStyle=orthogonalEdgeStyle;rounded=0;orthogonalLoop=1;jettySize=auto;html=1;fontSize=12;" edge="1" parent="WIyWlLk6GJQsqaUBKTNV-1" source="w8BWxTrsSD4lyKPSOWY--13" target="w8BWxTrsSD4lyKPSOWY--15">
          <mxGeometry relative="1" as="geometry" />
        </mxCell>
        <mxCell id="w8BWxTrsSD4lyKPSOWY--13" value="从Cache 中找到一个Line" style="rounded=1;whiteSpace=wrap;html=1;fontSize=12;glass=0;strokeWidth=1;shadow=0;" vertex="1" parent="WIyWlLk6GJQsqaUBKTNV-1">
          <mxGeometry x="160" y="290" width="171.5" height="40" as="geometry" />
        </mxCell>
        <mxCell id="w8BWxTrsSD4lyKPSOWY--15" value="从下级存储器中读取Data Block到刚刚选中的line中" style="rounded=1;whiteSpace=wrap;html=1;fontSize=12;glass=0;strokeWidth=1;shadow=0;" vertex="1" parent="WIyWlLk6GJQsqaUBKTNV-1">
          <mxGeometry x="160" y="360" width="171.5" height="40" as="geometry" />
        </mxCell>
        <mxCell id="w8BWxTrsSD4lyKPSOWY--18" value="将所需要的数据返给Load指令" style="rounded=1;whiteSpace=wrap;html=1;fontSize=12;glass=0;strokeWidth=1;shadow=0;" vertex="1" parent="WIyWlLk6GJQsqaUBKTNV-1">
          <mxGeometry x="160" y="430" width="171.5" height="40" as="geometry" />
        </mxCell>
        <mxCell id="w8BWxTrsSD4lyKPSOWY--21" value="No" style="text;html=1;align=center;verticalAlign=middle;resizable=0;points=[];autosize=1;strokeColor=none;fillColor=none;fontSize=12;" vertex="1" parent="WIyWlLk6GJQsqaUBKTNV-1">
          <mxGeometry x="210" y="255" width="40" height="30" as="geometry" />
        </mxCell>
        <mxCell id="w8BWxTrsSD4lyKPSOWY--22" value="Yes" style="text;html=1;align=center;verticalAlign=middle;resizable=0;points=[];autosize=1;strokeColor=none;fillColor=none;fontSize=12;" vertex="1" parent="WIyWlLk6GJQsqaUBKTNV-1">
          <mxGeometry x="331.5" y="200" width="40" height="30" as="geometry" />
        </mxCell>
        <mxCell id="w8BWxTrsSD4lyKPSOWY--23" value="从Cache 中找到一个Line" style="rounded=1;whiteSpace=wrap;html=1;fontSize=12;glass=0;strokeWidth=1;shadow=0;" vertex="1" parent="WIyWlLk6GJQsqaUBKTNV-1">
          <mxGeometry x="500" y="320" width="171.5" height="40" as="geometry" />
        </mxCell>
      </root>
    </mxGraphModel>
  </diagram>
</mxfile>
